<?xml version="1.0" encoding="utf-8"?>
<!-- Generator: Adobe Illustrator 22.0.1, SVG Export Plug-In . SVG Version: 6.00 Build 0)  -->
<svg version="1.1" id="bc7646eb-73ea-4804-9afd-b450058851dd"
	 xmlns="http://www.w3.org/2000/svg" xmlns:xlink="http://www.w3.org/1999/xlink" x="0px" y="0px" viewBox="0 0 797.5 741.6"
	 style="enable-background:new 0 0 797.5 741.6;" xml:space="preserve">
<style type="text/css">
	.st0{fill:#C6C6C6;}
	.st1{fill:#3F3D56;}
	.st2{fill:#FFFFFF;}
	.st3{fill:#E63946;}
	.st4{fill:#E6E6E6;}
	.st5{fill:#2F2E41;}
	.st6{fill:#FFB8B8;}
	.st7{fill:#D0CDE1;}
</style>
<title>online_posts</title>
<ellipse class="st0" cx="398.7" cy="723.6" rx="398.7" ry="18"/>
<path class="st1" d="M428,172.9h-4V63.4c0-35-28.4-63.4-63.4-63.4c0,0,0,0,0,0H128.5c-35,0-63.4,28.4-63.4,63.4c0,0,0,0,0,0v601
	c0,35,28.4,63.4,63.4,63.4c0,0,0,0,0,0h232.1c35,0,63.4-28.4,63.4-63.4c0,0,0,0,0,0V250.9h4V172.9z"/>
<path class="st2" d="M363.2,16.5h-30.3c4.7,11.5-0.8,24.6-12.3,29.3c-2.7,1.1-5.6,1.7-8.5,1.7h-133c-12.4,0-22.5-10.1-22.5-22.5
	c0-2.9,0.6-5.8,1.7-8.5H130c-26.1,0-47.3,21.2-47.3,47.3c0,0,0,0,0,0v600.1c0,26.1,21.2,47.3,47.3,47.3c0,0,0,0,0,0h233.2
	c26.1,0,47.3-21.2,47.3-47.3l0,0V63.8C410.5,37.7,389.3,16.5,363.2,16.5z"/>
<rect x="196.3" y="177.7" class="st3" width="82.7" height="7.7"/>
<rect x="196.3" y="204.3" class="st4" width="144.1" height="7.7"/>
<rect x="196.3" y="230.8" class="st4" width="143.9" height="7.7"/>
<rect x="117.8" y="177.8" class="st3" width="61.4" height="61.4"/>
<rect x="196.3" y="338.9" class="st3" width="82.7" height="7.7"/>
<rect x="196.3" y="365.5" class="st4" width="144.1" height="7.7"/>
<rect x="196.3" y="392" class="st4" width="143.9" height="7.7"/>
<rect x="117.8" y="339" class="st3" width="61.4" height="61.4"/>
<rect x="196.3" y="500.1" class="st3" width="82.7" height="7.7"/>
<rect x="196.3" y="526.7" class="st4" width="144.1" height="7.7"/>
<rect x="196.3" y="553.2" class="st4" width="143.9" height="7.7"/>
<rect x="117.8" y="500.2" class="st3" width="61.4" height="61.4"/>
<circle class="st5" cx="659" cy="300.2" r="30.4"/>
<path class="st6" d="M675,320.5c0,0-0.5,18.8,1.4,19.3s-25.2,7.8-25.2,7.8l-2.8-25.7L675,320.5z"/>
<path class="st6" d="M461.4,481c0,0-20.2,0-20.6-2.3s-4.6,18.8-4.6,18.8l8.3,2.8c0,0,15.6-6.9,17-6.9S461.4,481,461.4,481z"/>
<path class="st5" d="M439.4,489.2c0,0,3.7-12.4,8.3-12.8c0,0-15.6-10.1-16-13.3s-6-11.5-8.3-8.7s-2.3,46.3,1.8,50.9
	s22.5-6.4,22.5-6.4S436.2,493.8,439.4,489.2z"/>
<polygon class="st6" points="688.3,664.8 692,684.5 675,687.3 675,664.8 "/>
<path class="st5" d="M688.3,682.2c0,0,2.8-8.7,4.6-7.3c1.8,1.4,4.6,10.1,4.1,12.4s-3.7,20.2-2.3,23.4s-6.9,19.7-17.4,18.3
	s-9.6-10.5-9.6-10.5l3.7-14.2l1.4-22.5C672.7,681.8,684.6,679.9,688.3,682.2z"/>
<circle class="st5" cx="669.6" cy="268.2" r="12.6"/>
<path class="st5" d="M686.4,261.4c0-6.5-4.9-11.9-11.3-12.5c0.4,0,0.9-0.1,1.3-0.1c7,0,12.6,5.6,12.6,12.6c0,7-5.6,12.6-12.6,12.6
	c-0.4,0-0.9,0-1.3-0.1C681.6,273.2,686.4,267.8,686.4,261.4z"/>
<circle class="st6" cx="659" cy="314.1" r="19.3"/>
<path class="st5" d="M697,448c0,0-0.9,22.9-4.6,34.8s-16.9,96.8-14.1,103.2c2.8,6.4,16.9,77.4,13.7,81.5s-18.3,2.8-18.3,2.8
	l-20.6-86.1c0,0,4.1-95-29.9-97.3s-89.4-3.7-89.4-3.7s-35.8,10.5-51.8,10.1s-25.2,4.1-25.2,4.1l-2.8-18.8l71.1-15.6
	c0,0,65.1-22.5,100.9-16.5S697,448,697,448z"/>
<path class="st7" d="M671.4,333.8c0,0,5.5-3.2,6.9,0s11,6,14.7,3.2s12.8,0.9,12.8,0.9l10.1,29.8c0,0-5,25.7-9.6,39.9
	s-6.4,43.6-4.6,46.3s-36.7,13.8-55.5,6.9s-22.9-14.7-22.9-14.7s20.6-29.3,13.8-43.1s-1.4-29.3-1.4-29.3l-2.8-15.6l15.6-8.7
	c0,0,0.9-8.3,4.6-8.3S671.4,333.8,671.4,333.8z"/>
<path class="st7" d="M639.7,358.6h-6.9c-3.9,3.6-5.6,9-4.6,14.2c1.8,8.7,10.1,37.6,10.1,37.6l6.9-17.9L639.7,358.6z"/>
<path class="st6" d="M620,432.2c0,0-13.7,14.9-3.6,22.6s12.6-17.9,12.6-17.9L620,432.2z"/>
<path class="st7" d="M639.7,401.2l-3.2,12.8l-5.5,10.1c0,0-18.8,12.4-18.8,17c0,0,8.3-10.5,18.8,0l9.4-22.7L639.7,401.2z"/>
<ellipse class="st5" cx="655.4" cy="293.8" rx="21" ry="12.6"/>
<path class="st6" d="M697,294.8c0,0-14.7-8.3-20.6-2.3s17.9,15.1,17.9,15.1L697,294.8z"/>
<path class="st7" d="M702.5,340.2l3.2-2.3c0,0,3.7-5.5,6.9-3.7s22-6.9,22-6.9s-6.9,3.2-6.9-2.3s-0.9-4.6-5.5-4.6s-4.6,2.3-6.4-0.9
	s-0.9-5-4.1-3.2s-6.9,0.5-7.8-0.9s-17.4-3.7-17.4-3.7s6.4-18.8,7.8-20.2s36.7,14.2,36.7,14.2s44.5,12.4,33,26.6
	s-52.7,35.8-52.7,35.8L702.5,340.2z"/>
</svg>
